<svg width="35" height="35" viewBox="0 0 35 35" fill="none" xmlns="http://www.w3.org/2000/svg">
<path d="M30.2404 0H7.10262C4.92282 0 3.063 1.55985 2.68303 3.71965L0.0632797 18.7182C-0.1567 20.0381 0.203267 21.378 1.04319 22.3979C1.90311 23.4178 3.14299 23.9977 4.48287 23.9977H12.5421V29.4972C12.5421 32.5369 15.0019 34.9967 18.2016 34.9967C19.6014 34.9967 20.8613 34.1568 21.4213 32.8569L26.5008 20.998H30.2604C32.8802 20.998 35 18.8782 35 16.2585V4.71956C35 2.1198 32.8802 0 30.2604 0H30.2404ZM24.001 19.1982L18.6615 31.697C18.5815 31.877 18.4016 32.017 18.0216 32.017C16.6417 32.017 15.5418 30.8971 15.5418 29.5172V21.018H4.48287C4.02291 21.018 3.62295 20.838 3.34297 20.4981C3.043 20.1581 2.94301 19.7181 3.023 19.2582L5.64276 4.2596C5.76274 3.53967 6.38269 3.01972 7.12262 3.01972H24.001V19.1982ZM31.9803 16.2585C31.9803 17.2184 31.2004 17.9983 30.2404 17.9983H27.0208V2.99972H30.2404C31.2004 2.99972 31.9803 3.77965 31.9803 4.71956V16.2585Z" fill="black"/>
</svg>
