<svg width="46" height="38" viewBox="0 0 46 38" fill="none" xmlns="http://www.w3.org/2000/svg">
<path d="M43.2258 18.3537C42.8067 18.3555 42.3987 18.2265 42.0645 17.9867L22.5807 4.13571L3.09678 17.9867C2.68612 18.2787 2.16994 18.4041 1.66177 18.3353C1.15361 18.2664 0.695098 18.009 0.387105 17.6196C0.0791117 17.2302 -0.0531343 16.7407 0.0194605 16.2588C0.0920552 15.7769 0.363544 15.3421 0.774202 15.0501L21.4194 0.367075C21.7544 0.128803 22.1619 0 22.5807 0C22.9994 0 23.4069 0.128803 23.7419 0.367075L44.3871 15.0501C44.7619 15.3387 45.0093 15.7497 45.081 16.2025C45.1526 16.6552 45.0432 17.117 44.7742 17.4972C44.6097 17.7492 44.3825 17.9591 44.1126 18.1085C43.8426 18.2578 43.5381 18.342 43.2258 18.3537Z" fill="black"/>
<path d="M38.0646 37.931H7.09686C6.58562 37.9247 6.09719 37.7293 5.73566 37.3864C5.37412 37.0436 5.16806 36.5804 5.16138 36.0956V12.8476C5.16138 12.3608 5.36529 11.894 5.72827 11.5498C6.09124 11.2056 6.58354 11.0122 7.09686 11.0122C7.61018 11.0122 8.10248 11.2056 8.46546 11.5498C8.82843 11.894 9.03235 12.3608 9.03235 12.8476V34.2603H36.1291V12.8476C36.1291 12.3608 36.333 11.894 36.696 11.5498C37.059 11.2056 37.5513 11.0122 38.0646 11.0122C38.5779 11.0122 39.0702 11.2056 39.4332 11.5498C39.7962 11.894 40.0001 12.3608 40.0001 12.8476V36.0956C39.9934 36.5804 39.7873 37.0436 39.4258 37.3864C39.0643 37.7293 38.5759 37.9247 38.0646 37.931Z" fill="black"/>
<path d="M27.7419 37.931C27.2306 37.9247 26.7422 37.7293 26.3807 37.3864C26.0192 37.0436 25.8131 36.5804 25.8064 36.0956V20.8009H19.3548V36.0956C19.3548 36.5824 19.1509 37.0493 18.7879 37.3934C18.4249 37.7376 17.9326 37.931 17.4193 37.931C16.906 37.931 16.4137 37.7376 16.0507 37.3934C15.6877 37.0493 15.4838 36.5824 15.4838 36.0956V18.9655C15.4905 18.4807 15.6966 18.0175 16.0581 17.6747C16.4196 17.3319 16.9081 17.1365 17.4193 17.1301H27.7419C28.2531 17.1365 28.7416 17.3319 29.1031 17.6747C29.4646 18.0175 29.6707 18.4807 29.6774 18.9655V36.0956C29.6707 36.5804 29.4646 37.0436 29.1031 37.3864C28.7416 37.7293 28.2531 37.9247 27.7419 37.931Z" fill="black"/>
</svg>
