<svg width="35" height="35" viewBox="0 0 35 35" fill="none" xmlns="http://www.w3.org/2000/svg">
<path d="M33.9564 12.6C33.0959 11.58 31.8553 11 30.5147 11H22.4508V5.5C22.4508 2.46 19.9896 0 16.7881 0C15.3874 0 14.1268 0.84 13.5665 2.14L8.48409 14H4.74228C2.12102 14 0 16.12 0 18.74V30.28C0 32.88 2.14103 35 4.74228 35H27.8734C30.0545 35 31.9154 33.44 32.2956 31.28L34.9368 16.28C35.1569 14.96 34.7968 13.62 33.9363 12.6H33.9564ZM4.74228 32C3.78182 32 3.00145 31.22 3.00145 30.28V18.74C3.00145 17.78 3.78182 17 4.74228 17H7.96384V32H4.74228ZM29.3541 30.76C29.2341 31.48 28.6138 32 27.8734 32H10.9853V15.8L16.3279 3.3C16.4079 3.12 16.588 2.98 16.9682 2.98C18.3488 2.98 19.4494 4.1 19.4494 5.48V13.98H30.5147C30.9749 13.98 31.3751 14.16 31.6552 14.5C31.9354 14.84 32.0554 15.28 31.9754 15.74L29.3341 30.74L29.3541 30.76Z" fill="black"/>
</svg>
