<svg width="124" height="31" viewBox="0 0 124 31" fill="none" xmlns="http://www.w3.org/2000/svg">
<path d="M0.909091 24L4.77273 0.727272H11.9432C13.4129 0.727272 14.625 1.0303 15.5795 1.63636C16.5417 2.23485 17.2197 3.06439 17.6136 4.125C18.0076 5.17803 18.0909 6.37879 17.8636 7.72727C17.6439 9.06061 17.1629 10.2538 16.4205 11.3068C15.678 12.3598 14.7273 13.1932 13.5682 13.8068C12.4091 14.4129 11.0947 14.7159 9.625 14.7159H3.44318L3.67045 13.3977H9.81818C11.0076 13.3977 12.0682 13.1553 13 12.6705C13.9318 12.178 14.6932 11.5076 15.2841 10.6591C15.8826 9.80303 16.2727 8.82576 16.4545 7.72727C16.6364 6.61364 16.572 5.63258 16.2614 4.78409C15.9508 3.92803 15.4091 3.25758 14.6364 2.77273C13.8636 2.28788 12.8788 2.04545 11.6818 2.04545H5.96591L2.32955 24H0.909091ZM20.108 24L23.017 6.54545H24.3693L23.9148 9.27273H24.0398C24.5549 8.37879 25.3125 7.66288 26.3125 7.125C27.3125 6.57955 28.3883 6.30682 29.5398 6.30682C29.6686 6.30682 29.7898 6.30682 29.9034 6.30682C30.017 6.30682 30.1307 6.31061 30.2443 6.31818L30.0057 7.71591C29.9148 7.70833 29.8049 7.69697 29.6761 7.68182C29.5549 7.65909 29.4034 7.64773 29.2216 7.64773C28.2519 7.64773 27.3542 7.85606 26.5284 8.27273C25.7027 8.68939 25.0133 9.26515 24.4602 10C23.9072 10.7273 23.5549 11.5606 23.4034 12.5L21.4943 24H20.108ZM30.4233 24L30.6392 22.8295L43.3324 7.98864L43.3551 7.86364H33.6733L33.9006 6.54545H45.3665L45.1506 7.73864L32.5824 22.5568L32.5597 22.6818H43.0938L42.8665 24H30.4233ZM53.9006 24.3636C52.3248 24.3636 51.018 23.9735 49.9801 23.1932C48.9422 22.4129 48.2188 21.3447 47.8097 19.9886C47.4006 18.6326 47.34 17.0871 47.6278 15.3523C47.9157 13.6098 48.4915 12.0568 49.3551 10.6932C50.2188 9.32955 51.2756 8.25379 52.5256 7.46591C53.7756 6.67803 55.1241 6.28409 56.571 6.28409C57.5483 6.28409 58.4384 6.48106 59.2415 6.875C60.0521 7.26894 60.7339 7.83333 61.2869 8.56818C61.84 9.29545 62.2225 10.178 62.4347 11.2159C62.6468 12.2538 62.6468 13.4205 62.4347 14.7159L62.2756 15.5795H48.4574L48.6733 14.3182H61.0938C61.3059 13.0606 61.2453 11.9242 60.9119 10.9091C60.5786 9.88636 60.0256 9.07576 59.2528 8.47727C58.4877 7.87879 57.5483 7.57954 56.4347 7.57954C55.2983 7.57954 54.215 7.90909 53.1847 8.56818C52.1619 9.2197 51.2831 10.0909 50.5483 11.1818C49.821 12.2727 49.3362 13.4735 49.0938 14.7841L48.9574 15.4886C48.715 16.9886 48.7453 18.3106 49.0483 19.4545C49.3589 20.5909 49.9347 21.4811 50.7756 22.125C51.6165 22.7614 52.715 23.0795 54.071 23.0795C55.018 23.0795 55.8589 22.9205 56.5938 22.6023C57.3362 22.2765 57.965 21.8826 58.4801 21.4205C59.0028 20.9583 59.4119 20.5114 59.7074 20.0795L60.8551 20.5909C60.5066 21.1742 60.0066 21.7576 59.3551 22.3409C58.7036 22.9167 57.9195 23.3977 57.0028 23.7841C56.0862 24.1705 55.0521 24.3636 53.9006 24.3636ZM64.6023 30.5455L68.6023 6.54545H69.9545L69.3182 10.4432H69.4886C69.8826 9.69318 70.375 9.00379 70.9659 8.375C71.5644 7.74621 72.2652 7.24242 73.0682 6.86364C73.8788 6.47727 74.7841 6.28409 75.7841 6.28409C77.1932 6.28409 78.3561 6.67045 79.2727 7.44318C80.1894 8.21591 80.822 9.2803 81.1705 10.6364C81.5189 11.9924 81.5492 13.553 81.2614 15.3182C80.9659 17.0758 80.4129 18.6364 79.6023 20C78.7992 21.3561 77.8144 22.4242 76.6477 23.2045C75.4811 23.9773 74.2008 24.3636 72.8068 24.3636C71.8144 24.3636 70.9735 24.1742 70.2841 23.7955C69.6023 23.4167 69.0644 22.9129 68.6705 22.2841C68.2765 21.6477 68.0038 20.9508 67.8523 20.1932H67.7159L65.9886 30.5455H64.6023ZM68.5114 15.3068C68.2689 16.7917 68.2689 18.1212 68.5114 19.2955C68.7614 20.4621 69.2462 21.3864 69.9659 22.0682C70.6932 22.7424 71.6439 23.0795 72.8182 23.0795C74.0076 23.0795 75.0871 22.7386 76.0568 22.0568C77.0341 21.3674 77.8523 20.4356 78.5114 19.2614C79.178 18.0871 79.6326 16.7689 79.875 15.3068C80.1174 13.8447 80.1174 12.5303 79.875 11.3636C79.6326 10.197 79.1515 9.27651 78.4318 8.60227C77.7121 7.92045 76.75 7.57954 75.5455 7.57954C74.3636 7.57954 73.2841 7.91667 72.3068 8.59091C71.3295 9.25758 70.5114 10.1742 69.8523 11.3409C69.2008 12.5 68.7538 13.822 68.5114 15.3068ZM84.6449 24L87.554 6.54545H88.929L86.0199 24H84.6449ZM88.8949 3.44318C88.5691 3.44318 88.2964 3.33333 88.0767 3.11364C87.8646 2.88636 87.7737 2.60985 87.804 2.28409C87.8191 2.01136 87.9403 1.77273 88.1676 1.56818C88.3949 1.36364 88.6563 1.26136 88.9517 1.26136C89.2775 1.26136 89.5464 1.375 89.7585 1.60227C89.9706 1.82197 90.0653 2.09091 90.0426 2.40909C90.0199 2.68939 89.8949 2.93182 89.6676 3.13636C89.4479 3.34091 89.1903 3.44318 88.8949 3.44318ZM105.19 10.3068L103.861 10.625C103.747 9.98106 103.543 9.43182 103.247 8.97727C102.952 8.51515 102.543 8.16288 102.02 7.92045C101.505 7.67045 100.857 7.54545 100.077 7.54545C98.7661 7.54545 97.6487 7.87121 96.7244 8.52273C95.8002 9.17424 95.2547 10.0152 95.0881 11.0455C94.9517 11.8636 95.1108 12.5379 95.5653 13.0682C96.0199 13.5985 96.7888 14.0038 97.8722 14.2841L100.463 14.9545C101.781 15.2955 102.724 15.8561 103.293 16.6364C103.868 17.4167 104.062 18.3712 103.872 19.5C103.721 20.4621 103.323 21.3106 102.679 22.0455C102.043 22.7727 101.232 23.3409 100.247 23.75C99.2623 24.1591 98.1638 24.3636 96.9517 24.3636C95.3153 24.3636 94.035 23.9811 93.1108 23.2159C92.1866 22.4432 91.6903 21.3409 91.6222 19.9091L92.9972 19.6364C93.0502 20.7652 93.4214 21.625 94.1108 22.2159C94.8002 22.7992 95.7813 23.0909 97.054 23.0909C98.5009 23.0909 99.7244 22.7462 100.724 22.0568C101.724 21.3674 102.312 20.4886 102.486 19.4205C102.615 18.625 102.467 17.9583 102.043 17.4205C101.618 16.8826 100.906 16.4886 99.9062 16.2386L97.2585 15.5568C95.8797 15.2008 94.8911 14.6326 94.2926 13.8523C93.7017 13.0644 93.5009 12.1023 93.6903 10.9659C93.8494 10.0417 94.2282 9.22727 94.8267 8.52273C95.4328 7.81818 96.1979 7.26894 97.1222 6.875C98.0464 6.48106 99.0653 6.28409 100.179 6.28409C101.671 6.28409 102.827 6.63636 103.645 7.34091C104.463 8.03788 104.978 9.02651 105.19 10.3068ZM107.943 30.5455C107.595 30.5455 107.258 30.5076 106.932 30.4318C106.614 30.3561 106.326 30.2576 106.068 30.1364L106.67 28.9205C107.322 29.1932 107.939 29.2841 108.523 29.1932C109.114 29.1098 109.667 28.8333 110.182 28.3636C110.705 27.8939 111.197 27.2273 111.659 26.3636L112.818 24.1818L109.409 6.54545H110.83L113.761 22.2273H113.886L122.034 6.54545H123.591L112.83 26.9659C112.405 27.7614 111.936 28.4242 111.42 28.9545C110.905 29.4848 110.352 29.8826 109.761 30.1477C109.178 30.4129 108.572 30.5455 107.943 30.5455Z" fill="black"/>
</svg>
